<svg t="1631374212648" class="icon" viewBox="0 0 1024 1024" version="1.1" xmlns="http://www.w3.org/2000/svg" p-id="9393" width="200" height="200"><path d="M114.447059 286.117647l-60.235294-27.105882 21.082353 186.729411 156.611764-102.4-63.247058-30.117647C240.941176 201.788235 352.376471 120.470588 478.870588 87.341176L379.482353 60.235294C240.941176 120.470588 132.517647 228.894118 72.282353 361.411765l42.164706-75.294118zM584.282353 620.423529H39.152941c-12.047059 0-24.094118-18.070588-24.094117-39.152941 0-21.082353 12.047059-39.152941 24.094117-39.152941h545.129412c12.047059 0 24.094118 18.070588 24.094118 39.152941 0 21.082353-12.047059 39.152941-24.094118 39.152941zM828.235294 743.905882v259.011765c0 6.023529-18.070588 12.047059-39.152941 12.047059-21.082353 0-39.152941-6.023529-39.152941-12.047059v-259.011765c0-6.023529 18.070588-12.047059 39.152941-12.047058 21.082353 0 39.152941 6.023529 39.152941 12.047058z" p-id="9394"></path><path d="M93.364706 569.223529v415.62353c0 9.035294-18.070588 18.070588-39.152941 18.070588-21.082353 0-39.152941-9.035294-39.152941-18.070588V569.223529c0-9.035294 18.070588-18.070588 39.152941-18.070588 21.082353 0 39.152941 9.035294 39.152941 18.070588z" p-id="9395"></path><path d="M795.105882 1024H48.188235C30.117647 1024 15.058824 1005.929412 15.058824 984.847059c0-21.082353 15.058824-39.152941 33.129411-39.152941h746.917647c18.070588 0 33.129412 18.070588 33.129412 39.152941 0 21.082353-15.058824 39.152941-33.129412 39.152941zM608.376471 33.129412v746.917647c0 18.070588-18.070588 33.129412-39.152942 33.129412-21.082353 0-39.152941-15.058824-39.152941-33.129412V33.129412c0-18.070588 18.070588-33.129412 39.152941-33.129412 21.082353 0 39.152941 15.058824 39.152942 33.129412z" p-id="9396"></path><path d="M554.164706 0h415.623529c9.035294 0 18.070588 18.070588 18.070589 39.152941 0 21.082353-9.035294 39.152941-18.070589 39.152941H554.164706c-9.035294 0-18.070588-18.070588-18.070588-39.152941 0-21.082353 9.035294-39.152941 18.070588-39.152941zM557.176471 731.858824h415.623529c9.035294 0 18.070588 18.070588 18.070588 39.152941 0 21.082353-9.035294 39.152941-18.070588 39.152941H557.176471c-9.035294 0-18.070588-18.070588-18.070589-39.152941 0-21.082353 9.035294-39.152941 18.070589-39.152941z" p-id="9397"></path><path d="M1011.952941 33.129412v746.917647c0 18.070588-18.070588 33.129412-39.152941 33.129412-21.082353 0-39.152941-15.058824-39.152941-33.129412V33.129412c0-18.070588 18.070588-33.129412 39.152941-33.129412 21.082353 0 39.152941 15.058824 39.152941 33.129412z" p-id="9398"></path></svg>