<svg t="1631714325317" class="icon" viewBox="0 0 1024 1024" version="1.1" xmlns="http://www.w3.org/2000/svg" p-id="2253" width="200" height="200"><path d="M137.44 508.48c0 40.533333 4.053333 85.333333 18.293333 121.6h276.693334a453.706667 453.706667 0 0 0 14.24-117.333333 464.533333 464.533333 0 0 0-14.24-117.333334H151.68a495.093333 495.093333 0 0 0-14.24 113.493334z m555.413333-113.493333H483.306667c10.186667 34.453333 14.24 74.986667 14.24 117.333333a464.533333 464.533333 0 0 1-14.24 117.333333h209.546666c65.12 0 115.946667-50.666667 115.946667-117.333333s-50.88-117.333333-115.946667-117.333333zM180.16 340.266667h238.026667C389.706667 279.466667 357.333333 222.72 320.533333 178.133333 259.52 218.666667 206.613333 273.386667 180.16 340.266667z m553.386667 0a195.253333 195.253333 0 0 0 148.533333-64.853334c-73.226667-103.36-197.333333-168.213333-337.706667-168.213333a372.426667 372.426667 0 0 0-183.093333 46.613333C408.053333 204.48 440.586667 269.333333 465.013333 336z m-559.466667 344.533333h238.026667C387.68 745.6 357.333333 800.32 314.666667 840.853333a389.973333 389.973333 0 0 1-140.586667-156.053333z m561.546667 0a195.253333 195.253333 0 0 1 148.533333 64.853333c-75.253333 101.333333-205.493333 168.213333-339.786667 168.213334-69.333333 0-126.133333-20.266667-183.093333-44.586667 46.773333-50.666667 79.36-117.333333 103.733333-182.4z m0 0" p-id="2254"></path></svg>