<svg height="45" width="45" xmlns="http://www.w3.org/2000/svg">
  <g fill="none" fill-rule="evenodd">
    <path d="M14.4 12.2c-.4 0-.6.3-.8.5L1 31.6c0 .3-.2.6 0 1 .2.6.8.9 1.4.8.1 0 .2 0 .3-.2l11.1-7.4c.1-.2.3-.3.6-.3z" fill="#595959"/>
    <path d="M22 21.7c-.3 0-.5-.3-.7-.5l-5.6-8.4c-.2-.3-.4-.5-.7-.6v13.4c.3 0 .6 0 1 .2l5.5 3.8c.2.2.4.2.7.3v-8.2z" fill="#919191"/>
    <path d="M29.6 12.2c-.3 0-.5.3-.7.5l-5.6 8.4c-.3.3-.5.5-.8.5v8.2l.8-.2 5.5-3.8 1-.3V12.2z" fill="#595959"/>
    <path d="M43.5 31.6L30.9 12.7l-.7-.5v13.4l.5.2 11.2 7.5c.5.3 1.3.2 1.7-.3v-1.4z" fill="#919191"/>
  </g>
</svg>