
<svg height="42" width="42" xmlns="http://www.w3.org/2000/svg">
  <g fill="#979797">
    <path d="M33.4 5.7c1.2-.6 2.7-.2 3.4 1s.3 2.8-.9 3.5l-8.8 5c-1.7 1-3.9-.2-3.8-2.2V2.7c0-1.4 1.2-2.4 2.6-2.4 1.4 0 2.4 1.2 2.4 2.6v5.7zM40.5 23.8c1.2.7 1.6 2.3.9 3.4s-2.3 1.7-3.5 1l-8.8-5c-1.7-1-1.7-3.6 0-4.5l9-5.1c1.2-.7 2.7-.2 3.3 1s.2 2.7-1 3.4l-5 3zM28.4 39.1c0 1.4-1.2 2.5-2.5 2.5s-2.6-1.2-2.6-2.5V28.9c0-2 2.2-3.2 3.8-2.2l9 5.2c1 .7 1.4 2.2.7 3.4s-2.2 1.5-3.4.8l-5-2.8zM8.6 5.7c-1.2-.6-2.7-.2-3.4 1s-.3 2.8.9 3.5l8.8 5c1.7 1 3.9-.2 3.8-2.2V2.7c0-1.4-1.2-2.4-2.6-2.4A2.5 2.5 0 0 0 13.7 3v5.7zM1.5 23.8c-1.2.7-1.6 2.3-.9 3.4s2.3 1.7 3.5 1l8.8-5c1.7-1 1.7-3.6 0-4.5l-9-5.1c-1.2-.7-2.7-.2-3.3 1s-.2 2.7 1 3.4l5 3zM13.6 39.1c0 1.4 1.2 2.5 2.5 2.5s2.6-1.2 2.6-2.5V28.9c0-2-2.2-3.2-3.8-2.2l-9 5.2c-1 .7-1.4 2.2-.7 3.4s2.2 1.5 3.4.8l5-2.8zM22.4 16.9l2.8 2.8c.8.8.8 2 0 2.8l-2.8 2.8a2 2 0 0 1-2.8 0l-2.8-2.8a2 2 0 0 1 0-2.8l2.8-2.8a2 2 0 0 1 2.8 0zm-1 2.7a.5.5 0 0 0-.8 0l-1.1 1.1c-.2.2-.2.6 0 .8l1.1 1.1c.2.2.6.2.8 0l1.1-1.1c.2-.2.2-.6 0-.8z"/>
  </g>
</svg>